{"header":{"formatType":1,"trackCount":7,"ticksPerBeat":15360},"tracks":[[{"deltaTime":0,"type":"meta","subtype":"trackName","text":"Transport"},{"deltaTime":0,"type":"meta","subtype":"instrumentName","text":"Hardware Interface II"},{"deltaTime":0,"type":"meta","subtype":"unknown","data":"\u0000"},{"deltaTime":0,"type":"meta","subtype":"setTempo","microsecondsPerBeat":428571},{"deltaTime":0,"type":"meta","subtype":"timeSignature","numerator":4,"denominator":4,"metronome":24,"thirtyseconds":8},{"deltaTime":1044480,"type":"meta","subtype":"endOfTrack"}],[{"deltaTime":0,"type":"meta","subtype":"trackName","text":"NN-XT 2"},{"deltaTime":0,"type":"meta","subtype":"instrumentName","text":"NN-XT 2"},{"deltaTime":0,"type":"meta","subtype":"unknown","data":"\u0016"},{"deltaTime":491520,"channel":0,"type":"channel","noteNumber":60,"velocity":100,"subtype":"noteOn"},{"deltaTime":0,"channel":0,"type":"channel","noteNumber":67,"velocity":100,"subtype":"noteOn"},{"deltaTime":15360,"channel":0,"type":"channel","subtype":"noteOff","noteNumber":60,"velocity":0},{"deltaTime":0,"channel":0,"type":"channel","subtype":"noteOff","noteNumber":67,"velocity":0},{"deltaTime":0,"channel":0,"type":"channel","noteNumber":69,"velocity":100,"subtype":"noteOn"},{"deltaTime":0,"channel":0,"type":"channel","noteNumber":74,"velocity":100,"subtype":"noteOn"},{"deltaTime":15360,"channel":0,"type":"channel","subtype":"noteOff","noteNumber":69,"velocity":0},{"deltaTime":0,"channel":0,"type":"channel","subtype":"noteOff","noteNumber":74,"velocity":0},{"deltaTime":0,"channel":0,"type":"channel","noteNumber":72,"velocity":100,"subtype":"noteOn"},{"deltaTime":0,"channel":0,"type":"channel","noteNumber":79,"velocity":100,"subtype":"noteOn"},{"deltaTime":46080,"channel":0,"type":"channel","subtype":"noteOff","noteNumber":72,"velocity":0},{"deltaTime":0,"channel":0,"type":"channel","subtype":"noteOff","noteNumber":79,"velocity":0},{"deltaTime":15360,"channel":0,"type":"channel","noteNumber":72,"velocity":100,"subtype":"noteOn"},{"deltaTime":0,"channel":0,"type":"channel","noteNumber":79,"velocity":100,"subtype":"noteOn"},{"deltaTime":15360,"channel":0,"type":"channel","subtype":"noteOff","noteNumber":72,"velocity":0},{"deltaTime":0,"channel":0,"type":"channel","subtype":"noteOff","noteNumber":79,"velocity":0},{"deltaTime":0,"channel":0,"type":"channel","noteNumber":74,"velocity":100,"subtype":"noteOn"},{"deltaTime":0,"channel":0,"type":"channel","noteNumber":77,"velocity":100,"subtype":"noteOn"},{"deltaTime":15360,"channel":0,"type":"channel","subtype":"noteOff","noteNumber":74,"velocity":0},{"deltaTime":0,"channel":0,"type":"channel","subtype":"noteOff","noteNumber":77,"velocity":0},{"deltaTime":0,"channel":0,"type":"channel","noteNumber":72,"velocity":100,"subtype":"noteOn"},{"deltaTime":0,"channel":0,"type":"channel","noteNumber":76,"velocity":100,"subtype":"noteOn"},{"deltaTime":15360,"channel":0,"type":"channel","subtype":"noteOff","noteNumber":72,"velocity":0},{"deltaTime":0,"channel":0,"type":"channel","subtype":"noteOff","noteNumber":76,"velocity":0},{"deltaTime":46080,"channel":0,"type":"channel","noteNumber":67,"velocity":100,"subtype":"noteOn"},{"deltaTime":0,"channel":0,"type":"channel","noteNumber":74,"velocity":100,"subtype":"noteOn"},{"deltaTime":15360,"channel":0,"type":"channel","subtype":"noteOff","noteNumber":67,"velocity":0},{"deltaTime":0,"channel":0,"type":"channel","subtype":"noteOff","noteNumber":74,"velocity":0},{"deltaTime":15360,"channel":0,"type":"channel","noteNumber":72,"velocity":100,"subtype":"noteOn"},{"deltaTime":0,"channel":0,"type":"channel","noteNumber":79,"velocity":100,"subtype":"noteOn"},{"deltaTime":15360,"channel":0,"type":"channel","subtype":"noteOff","noteNumber":72,"velocity":0},{"deltaTime":0,"channel":0,"type":"channel","subtype":"noteOff","noteNumber":79,"velocity":0},{"deltaTime":15360,"channel":0,"type":"channel","noteNumber":60,"velocity":100,"subtype":"noteOn"},{"deltaTime":0,"channel":0,"type":"channel","noteNumber":67,"velocity":100,"subtype":"noteOn"},{"deltaTime":15360,"channel":0,"type":"channel","subtype":"noteOff","noteNumber":60,"velocity":0},{"deltaTime":0,"channel":0,"type":"channel","subtype":"noteOff","noteNumber":67,"velocity":0},{"deltaTime":0,"channel":0,"type":"channel","noteNumber":69,"velocity":100,"subtype":"noteOn"},{"deltaTime":0,"channel":0,"type":"channel","noteNumber":74,"velocity":100,"subtype":"noteOn"},{"deltaTime":15360,"channel":0,"type":"channel","subtype":"noteOff","noteNumber":69,"velocity":0},{"deltaTime":0,"channel":0,"type":"channel","subtype":"noteOff","noteNumber":74,"velocity":0},{"deltaTime":0,"channel":0,"type":"channel","noteNumber":72,"velocity":100,"subtype":"noteOn"},{"deltaTime":0,"channel":0,"type":"channel","noteNumber":79,"velocity":100,"subtype":"noteOn"},{"deltaTime":46080,"channel":0,"type":"channel","subtype":"noteOff","noteNumber":72,"velocity":0},{"deltaTime":0,"channel":0,"type":"channel","subtype":"noteOff","noteNumber":79,"velocity":0},{"deltaTime":15360,"channel":0,"type":"channel","noteNumber":72,"velocity":100,"subtype":"noteOn"},{"deltaTime":0,"channel":0,"type":"channel","noteNumber":79,"velocity":100,"subtype":"noteOn"},{"deltaTime":15360,"channel":0,"type":"channel","subtype":"noteOff","noteNumber":72,"velocity":0},{"deltaTime":0,"channel":0,"type":"channel","subtype":"noteOff","noteNumber":79,"velocity":0},{"deltaTime":0,"channel":0,"type":"channel","noteNumber":74,"velocity":100,"subtype":"noteOn"},{"deltaTime":0,"channel":0,"type":"channel","noteNumber":77,"velocity":100,"subtype":"noteOn"},{"deltaTime":15360,"channel":0,"type":"channel","subtype":"noteOff","noteNumber":74,"velocity":0},{"deltaTime":0,"channel":0,"type":"channel","subtype":"noteOff","noteNumber":77,"velocity":0},{"deltaTime":0,"channel":0,"type":"channel","noteNumber":72,"velocity":100,"subtype":"noteOn"},{"deltaTime":0,"channel":0,"type":"channel","noteNumber":76,"velocity":100,"subtype":"noteOn"},{"deltaTime":15360,"channel":0,"type":"channel","subtype":"noteOff","noteNumber":72,"velocity":0},{"deltaTime":0,"channel":0,"type":"channel","subtype":"noteOff","noteNumber":76,"velocity":0},{"deltaTime":46080,"channel":0,"type":"channel","noteNumber":67,"velocity":100,"subtype":"noteOn"},{"deltaTime":0,"channel":0,"type":"channel","noteNumber":74,"velocity":100,"subtype":"noteOn"},{"deltaTime":15360,"channel":0,"type":"channel","subtype":"noteOff","noteNumber":67,"velocity":0},{"deltaTime":0,"channel":0,"type":"channel","subtype":"noteOff","noteNumber":74,"velocity":0},{"deltaTime":15360,"channel":0,"type":"channel","noteNumber":72,"velocity":100,"subtype":"noteOn"},{"deltaTime":0,"channel":0,"type":"channel","noteNumber":79,"velocity":100,"subtype":"noteOn"},{"deltaTime":15360,"channel":0,"type":"channel","subtype":"noteOff","noteNumber":72,"velocity":0},{"deltaTime":0,"channel":0,"type":"channel","subtype":"noteOff","noteNumber":79,"velocity":0},{"deltaTime":76800,"type":"meta","subtype":"endOfTrack"}],[{"deltaTime":0,"type":"meta","subtype":"trackName","text":"NN-XT 1"},{"deltaTime":0,"type":"meta","subtype":"instrumentName","text":"NN-XT 1"},{"deltaTime":0,"type":"meta","subtype":"unknown","data":"\u000f"},{"deltaTime":737280,"channel":0,"type":"channel","noteNumber":79,"velocity":100,"subtype":"noteOn"},{"deltaTime":61440,"channel":0,"type":"channel","subtype":"noteOff","noteNumber":79,"velocity":0},{"deltaTime":0,"channel":0,"type":"channel","noteNumber":76,"velocity":100,"subtype":"noteOn"},{"deltaTime":30720,"channel":0,"type":"channel","subtype":"noteOff","noteNumber":76,"velocity":0},{"deltaTime":0,"channel":0,"type":"channel","noteNumber":74,"velocity":100,"subtype":"noteOn"},{"deltaTime":30720,"channel":0,"type":"channel","subtype":"noteOff","noteNumber":74,"velocity":0},{"deltaTime":0,"channel":0,"type":"channel","noteNumber":76,"velocity":100,"subtype":"noteOn"},{"deltaTime":30720,"channel":0,"type":"channel","subtype":"noteOff","noteNumber":76,"velocity":0},{"deltaTime":0,"channel":0,"type":"channel","noteNumber":72,"velocity":100,"subtype":"noteOn"},{"deltaTime":30720,"channel":0,"type":"channel","subtype":"noteOff","noteNumber":72,"velocity":0},{"deltaTime":0,"channel":0,"type":"channel","noteNumber":74,"velocity":100,"subtype":"noteOn"},{"deltaTime":61440,"channel":0,"type":"channel","subtype":"noteOff","noteNumber":74,"velocity":0},{"deltaTime":61440,"type":"meta","subtype":"endOfTrack"}],[{"deltaTime":0,"type":"meta","subtype":"trackName","text":"NN-XT 1 Copy"},{"deltaTime":0,"type":"meta","subtype":"instrumentName","text":"NN-XT 1 Copy"},{"deltaTime":0,"type":"meta","subtype":"unknown","data":"\u0014"},{"deltaTime":737280,"channel":0,"type":"channel","noteNumber":91,"velocity":100,"subtype":"noteOn"},{"deltaTime":61440,"channel":0,"type":"channel","subtype":"noteOff","noteNumber":91,"velocity":0},{"deltaTime":0,"channel":0,"type":"channel","noteNumber":88,"velocity":100,"subtype":"noteOn"},{"deltaTime":30720,"channel":0,"type":"channel","subtype":"noteOff","noteNumber":88,"velocity":0},{"deltaTime":0,"channel":0,"type":"channel","noteNumber":86,"velocity":100,"subtype":"noteOn"},{"deltaTime":30720,"channel":0,"type":"channel","subtype":"noteOff","noteNumber":86,"velocity":0},{"deltaTime":0,"channel":0,"type":"channel","noteNumber":88,"velocity":100,"subtype":"noteOn"},{"deltaTime":30720,"channel":0,"type":"channel","subtype":"noteOff","noteNumber":88,"velocity":0},{"deltaTime":0,"channel":0,"type":"channel","noteNumber":84,"velocity":100,"subtype":"noteOn"},{"deltaTime":30720,"channel":0,"type":"channel","subtype":"noteOff","noteNumber":84,"velocity":0},{"deltaTime":0,"channel":0,"type":"channel","noteNumber":86,"velocity":100,"subtype":"noteOn"},{"deltaTime":61440,"channel":0,"type":"channel","subtype":"noteOff","noteNumber":86,"velocity":0},{"deltaTime":61440,"type":"meta","subtype":"endOfTrack"}],[{"deltaTime":0,"type":"meta","subtype":"trackName","text":"Redrum 1"},{"deltaTime":0,"type":"meta","subtype":"instrumentName","text":"Redrum 1"},{"deltaTime":0,"type":"meta","subtype":"unknown","data":"\u000b"},{"deltaTime":0,"channel":0,"type":"channel","noteNumber":36,"velocity":97,"subtype":"noteOn"},{"deltaTime":0,"channel":0,"type":"channel","noteNumber":43,"velocity":97,"subtype":"noteOn"},{"deltaTime":7680,"channel":0,"type":"channel","subtype":"noteOff","noteNumber":36,"velocity":0},{"deltaTime":0,"channel":0,"type":"channel","subtype":"noteOff","noteNumber":43,"velocity":0},{"deltaTime":7680,"channel":0,"type":"channel","noteNumber":36,"velocity":97,"subtype":"noteOn"},{"deltaTime":0,"channel":0,"type":"channel","noteNumber":37,"velocity":97,"subtype":"noteOn"},{"deltaTime":0,"channel":0,"type":"channel","noteNumber":45,"velocity":97,"subtype":"noteOn"},{"deltaTime":7680,"channel":0,"type":"channel","subtype":"noteOff","noteNumber":36,"velocity":0},{"deltaTime":0,"channel":0,"type":"channel","subtype":"noteOff","noteNumber":37,"velocity":0},{"deltaTime":0,"channel":0,"type":"channel","subtype":"noteOff","noteNumber":45,"velocity":0},{"deltaTime":7680,"channel":0,"type":"channel","noteNumber":36,"velocity":97,"subtype":"noteOn"},{"deltaTime":7680,"channel":0,"type":"channel","subtype":"noteOff","noteNumber":36,"velocity":0},{"deltaTime":0,"channel":0,"type":"channel","noteNumber":44,"velocity":97,"subtype":"noteOn"},{"deltaTime":7680,"channel":0,"type":"channel","subtype":"noteOff","noteNumber":44,"velocity":0},{"deltaTime":0,"channel":0,"type":"channel","noteNumber":36,"velocity":97,"subtype":"noteOn"},{"deltaTime":0,"channel":0,"type":"channel","noteNumber":37,"velocity":97,"subtype":"noteOn"},{"deltaTime":7680,"channel":0,"type":"channel","subtype":"noteOff","noteNumber":36,"velocity":0},{"deltaTime":0,"channel":0,"type":"channel","subtype":"noteOff","noteNumber":37,"velocity":0},{"deltaTime":3840,"channel":0,"type":"channel","noteNumber":41,"velocity":97,"subtype":"noteOn"},{"deltaTime":3840,"channel":0,"type":"channel","subtype":"noteOff","noteNumber":41,"velocity":0},{"deltaTime":0,"channel":0,"type":"channel","noteNumber":36,"velocity":97,"subtype":"noteOn"},{"deltaTime":0,"channel":0,"type":"channel","noteNumber":43,"velocity":97,"subtype":"noteOn"},{"deltaTime":7680,"channel":0,"type":"channel","subtype":"noteOff","noteNumber":36,"velocity":0},{"deltaTime":0,"channel":0,"type":"channel","subtype":"noteOff","noteNumber":43,"velocity":0},{"deltaTime":7680,"channel":0,"type":"channel","noteNumber":36,"velocity":97,"subtype":"noteOn"},{"deltaTime":0,"channel":0,"type":"channel","noteNumber":37,"velocity":97,"subtype":"noteOn"},{"deltaTime":0,"channel":0,"type":"channel","noteNumber":45,"velocity":97,"subtype":"noteOn"},{"deltaTime":7680,"channel":0,"type":"channel","subtype":"noteOff","noteNumber":36,"velocity":0},{"deltaTime":0,"channel":0,"type":"channel","subtype":"noteOff","noteNumber":37,"velocity":0},{"deltaTime":0,"channel":0,"type":"channel","subtype":"noteOff","noteNumber":45,"velocity":0},{"deltaTime":7680,"channel":0,"type":"channel","noteNumber":36,"velocity":97,"subtype":"noteOn"},{"deltaTime":7680,"channel":0,"type":"channel","subtype":"noteOff","noteNumber":36,"velocity":0},{"deltaTime":0,"channel":0,"type":"channel","noteNumber":44,"velocity":97,"subtype":"noteOn"},{"deltaTime":7680,"channel":0,"type":"channel","subtype":"noteOff","noteNumber":44,"velocity":0},{"deltaTime":0,"channel":0,"type":"channel","noteNumber":36,"velocity":97,"subtype":"noteOn"},{"deltaTime":0,"channel":0,"type":"channel","noteNumber":37,"velocity":97,"subtype":"noteOn"},{"deltaTime":7680,"channel":0,"type":"channel","subtype":"noteOff","noteNumber":36,"velocity":0},{"deltaTime":0,"channel":0,"type":"channel","subtype":"noteOff","noteNumber":37,"velocity":0},{"deltaTime":3840,"channel":0,"type":"channel","noteNumber":41,"velocity":96,"subtype":"noteOn"},{"deltaTime":3840,"channel":0,"type":"channel","subtype":"noteOff","noteNumber":41,"velocity":0},{"deltaTime":0,"channel":0,"type":"channel","noteNumber":36,"velocity":97,"subtype":"noteOn"},{"deltaTime":0,"channel":0,"type":"channel","noteNumber":43,"velocity":97,"subtype":"noteOn"},{"deltaTime":7680,"channel":0,"type":"channel","subtype":"noteOff","noteNumber":36,"velocity":0},{"deltaTime":0,"channel":0,"type":"channel","subtype":"noteOff","noteNumber":43,"velocity":0},{"deltaTime":7680,"channel":0,"type":"channel","noteNumber":36,"velocity":97,"subtype":"noteOn"},{"deltaTime":0,"channel":0,"type":"channel","noteNumber":37,"velocity":97,"subtype":"noteOn"},{"deltaTime":0,"channel":0,"type":"channel","noteNumber":45,"velocity":97,"subtype":"noteOn"},{"deltaTime":7680,"channel":0,"type":"channel","subtype":"noteOff","noteNumber":36,"velocity":0},{"deltaTime":0,"channel":0,"type":"channel","subtype":"noteOff","noteNumber":37,"velocity":0},{"deltaTime":0,"channel":0,"type":"channel","subtype":"noteOff","noteNumber":45,"velocity":0},{"deltaTime":7680,"channel":0,"type":"channel","noteNumber":36,"velocity":97,"subtype":"noteOn"},{"deltaTime":7680,"channel":0,"type":"channel","subtype":"noteOff","noteNumber":36,"velocity":0},{"deltaTime":0,"channel":0,"type":"channel","noteNumber":44,"velocity":97,"subtype":"noteOn"},{"deltaTime":7680,"channel":0,"type":"channel","subtype":"noteOff","noteNumber":44,"velocity":0},{"deltaTime":0,"channel":0,"type":"channel","noteNumber":36,"velocity":97,"subtype":"noteOn"},{"deltaTime":0,"channel":0,"type":"channel","noteNumber":37,"velocity":97,"subtype":"noteOn"},{"deltaTime":7680,"channel":0,"type":"channel","subtype":"noteOff","noteNumber":36,"velocity":0},{"deltaTime":0,"channel":0,"type":"channel","subtype":"noteOff","noteNumber":37,"velocity":0},{"deltaTime":3840,"channel":0,"type":"channel","noteNumber":41,"velocity":97,"subtype":"noteOn"},{"deltaTime":3840,"channel":0,"type":"channel","subtype":"noteOff","noteNumber":41,"velocity":0},{"deltaTime":0,"channel":0,"type":"channel","noteNumber":36,"velocity":97,"subtype":"noteOn"},{"deltaTime":0,"channel":0,"type":"channel","noteNumber":43,"velocity":97,"subtype":"noteOn"},{"deltaTime":7680,"channel":0,"type":"channel","subtype":"noteOff","noteNumber":36,"velocity":0},{"deltaTime":0,"channel":0,"type":"channel","subtype":"noteOff","noteNumber":43,"velocity":0},{"deltaTime":7680,"channel":0,"type":"channel","noteNumber":36,"velocity":97,"subtype":"noteOn"},{"deltaTime":0,"channel":0,"type":"channel","noteNumber":37,"velocity":97,"subtype":"noteOn"},{"deltaTime":0,"channel":0,"type":"channel","noteNumber":45,"velocity":97,"subtype":"noteOn"},{"deltaTime":7680,"channel":0,"type":"channel","subtype":"noteOff","noteNumber":36,"velocity":0},{"deltaTime":0,"channel":0,"type":"channel","subtype":"noteOff","noteNumber":37,"velocity":0},{"deltaTime":0,"channel":0,"type":"channel","subtype":"noteOff","noteNumber":45,"velocity":0},{"deltaTime":7680,"channel":0,"type":"channel","noteNumber":36,"velocity":97,"subtype":"noteOn"},{"deltaTime":7680,"channel":0,"type":"channel","subtype":"noteOff","noteNumber":36,"velocity":0},{"deltaTime":0,"channel":0,"type":"channel","noteNumber":44,"velocity":97,"subtype":"noteOn"},{"deltaTime":7680,"channel":0,"type":"channel","subtype":"noteOff","noteNumber":44,"velocity":0},{"deltaTime":0,"channel":0,"type":"channel","noteNumber":36,"velocity":97,"subtype":"noteOn"},{"deltaTime":0,"channel":0,"type":"channel","noteNumber":37,"velocity":97,"subtype":"noteOn"},{"deltaTime":7680,"channel":0,"type":"channel","subtype":"noteOff","noteNumber":36,"velocity":0},{"deltaTime":0,"channel":0,"type":"channel","subtype":"noteOff","noteNumber":37,"velocity":0},{"deltaTime":3840,"channel":0,"type":"channel","noteNumber":41,"velocity":96,"subtype":"noteOn"},{"deltaTime":3840,"channel":0,"type":"channel","subtype":"noteOff","noteNumber":41,"velocity":0},{"deltaTime":0,"channel":0,"type":"channel","noteNumber":36,"velocity":97,"subtype":"noteOn"},{"deltaTime":0,"channel":0,"type":"channel","noteNumber":43,"velocity":97,"subtype":"noteOn"},{"deltaTime":7680,"channel":0,"type":"channel","subtype":"noteOff","noteNumber":36,"velocity":0},{"deltaTime":0,"channel":0,"type":"channel","subtype":"noteOff","noteNumber":43,"velocity":0},{"deltaTime":7680,"channel":0,"type":"channel","noteNumber":36,"velocity":97,"subtype":"noteOn"},{"deltaTime":0,"channel":0,"type":"channel","noteNumber":37,"velocity":97,"subtype":"noteOn"},{"deltaTime":0,"channel":0,"type":"channel","noteNumber":45,"velocity":97,"subtype":"noteOn"},{"deltaTime":7680,"channel":0,"type":"channel","subtype":"noteOff","noteNumber":36,"velocity":0},{"deltaTime":0,"channel":0,"type":"channel","subtype":"noteOff","noteNumber":37,"velocity":0},{"deltaTime":0,"channel":0,"type":"channel","subtype":"noteOff","noteNumber":45,"velocity":0},{"deltaTime":7680,"channel":0,"type":"channel","noteNumber":36,"velocity":97,"subtype":"noteOn"},{"deltaTime":7680,"channel":0,"type":"channel","subtype":"noteOff","noteNumber":36,"velocity":0},{"deltaTime":0,"channel":0,"type":"channel","noteNumber":44,"velocity":97,"subtype":"noteOn"},{"deltaTime":7680,"channel":0,"type":"channel","subtype":"noteOff","noteNumber":44,"velocity":0},{"deltaTime":0,"channel":0,"type":"channel","noteNumber":36,"velocity":97,"subtype":"noteOn"},{"deltaTime":0,"channel":0,"type":"channel","noteNumber":37,"velocity":97,"subtype":"noteOn"},{"deltaTime":7680,"channel":0,"type":"channel","subtype":"noteOff","noteNumber":36,"velocity":0},{"deltaTime":0,"channel":0,"type":"channel","subtype":"noteOff","noteNumber":37,"velocity":0},{"deltaTime":3840,"channel":0,"type":"channel","noteNumber":41,"velocity":97,"subtype":"noteOn"},{"deltaTime":3840,"channel":0,"type":"channel","subtype":"noteOff","noteNumber":41,"velocity":0},{"deltaTime":0,"channel":0,"type":"channel","noteNumber":36,"velocity":97,"subtype":"noteOn"},{"deltaTime":0,"channel":0,"type":"channel","noteNumber":43,"velocity":97,"subtype":"noteOn"},{"deltaTime":7680,"channel":0,"type":"channel","subtype":"noteOff","noteNumber":36,"velocity":0},{"deltaTime":0,"channel":0,"type":"channel","subtype":"noteOff","noteNumber":43,"velocity":0},{"deltaTime":7680,"channel":0,"type":"channel","noteNumber":36,"velocity":97,"subtype":"noteOn"},{"deltaTime":0,"channel":0,"type":"channel","noteNumber":37,"velocity":97,"subtype":"noteOn"},{"deltaTime":0,"channel":0,"type":"channel","noteNumber":45,"velocity":97,"subtype":"noteOn"},{"deltaTime":7680,"channel":0,"type":"channel","subtype":"noteOff","noteNumber":36,"velocity":0},{"deltaTime":0,"channel":0,"type":"channel","subtype":"noteOff","noteNumber":37,"velocity":0},{"deltaTime":0,"channel":0,"type":"channel","subtype":"noteOff","noteNumber":45,"velocity":0},{"deltaTime":7680,"channel":0,"type":"channel","noteNumber":36,"velocity":97,"subtype":"noteOn"},{"deltaTime":7680,"channel":0,"type":"channel","subtype":"noteOff","noteNumber":36,"velocity":0},{"deltaTime":0,"channel":0,"type":"channel","noteNumber":44,"velocity":97,"subtype":"noteOn"},{"deltaTime":7680,"channel":0,"type":"channel","subtype":"noteOff","noteNumber":44,"velocity":0},{"deltaTime":0,"channel":0,"type":"channel","noteNumber":36,"velocity":97,"subtype":"noteOn"},{"deltaTime":0,"channel":0,"type":"channel","noteNumber":37,"velocity":97,"subtype":"noteOn"},{"deltaTime":7680,"channel":0,"type":"channel","subtype":"noteOff","noteNumber":36,"velocity":0},{"deltaTime":0,"channel":0,"type":"channel","subtype":"noteOff","noteNumber":37,"velocity":0},{"deltaTime":3840,"channel":0,"type":"channel","noteNumber":41,"velocity":96,"subtype":"noteOn"},{"deltaTime":3840,"channel":0,"type":"channel","subtype":"noteOff","noteNumber":41,"velocity":0},{"deltaTime":0,"channel":0,"type":"channel","noteNumber":36,"velocity":97,"subtype":"noteOn"},{"deltaTime":0,"channel":0,"type":"channel","noteNumber":43,"velocity":97,"subtype":"noteOn"},{"deltaTime":7680,"channel":0,"type":"channel","subtype":"noteOff","noteNumber":36,"velocity":0},{"deltaTime":0,"channel":0,"type":"channel","subtype":"noteOff","noteNumber":43,"velocity":0},{"deltaTime":7680,"channel":0,"type":"channel","noteNumber":36,"velocity":97,"subtype":"noteOn"},{"deltaTime":0,"channel":0,"type":"channel","noteNumber":37,"velocity":97,"subtype":"noteOn"},{"deltaTime":0,"channel":0,"type":"channel","noteNumber":45,"velocity":97,"subtype":"noteOn"},{"deltaTime":7680,"channel":0,"type":"channel","subtype":"noteOff","noteNumber":36,"velocity":0},{"deltaTime":0,"channel":0,"type":"channel","subtype":"noteOff","noteNumber":37,"velocity":0},{"deltaTime":0,"channel":0,"type":"channel","subtype":"noteOff","noteNumber":45,"velocity":0},{"deltaTime":7680,"channel":0,"type":"channel","noteNumber":36,"velocity":97,"subtype":"noteOn"},{"deltaTime":7680,"channel":0,"type":"channel","subtype":"noteOff","noteNumber":36,"velocity":0},{"deltaTime":0,"channel":0,"type":"channel","noteNumber":44,"velocity":97,"subtype":"noteOn"},{"deltaTime":7680,"channel":0,"type":"channel","subtype":"noteOff","noteNumber":44,"velocity":0},{"deltaTime":0,"channel":0,"type":"channel","noteNumber":36,"velocity":97,"subtype":"noteOn"},{"deltaTime":0,"channel":0,"type":"channel","noteNumber":37,"velocity":97,"subtype":"noteOn"},{"deltaTime":7680,"channel":0,"type":"channel","subtype":"noteOff","noteNumber":36,"velocity":0},{"deltaTime":0,"channel":0,"type":"channel","subtype":"noteOff","noteNumber":37,"velocity":0},{"deltaTime":3840,"channel":0,"type":"channel","noteNumber":41,"velocity":97,"subtype":"noteOn"},{"deltaTime":3840,"channel":0,"type":"channel","subtype":"noteOff","noteNumber":41,"velocity":0},{"deltaTime":0,"channel":0,"type":"channel","noteNumber":36,"velocity":97,"subtype":"noteOn"},{"deltaTime":0,"channel":0,"type":"channel","noteNumber":43,"velocity":97,"subtype":"noteOn"},{"deltaTime":7680,"channel":0,"type":"channel","subtype":"noteOff","noteNumber":36,"velocity":0},{"deltaTime":0,"channel":0,"type":"channel","subtype":"noteOff","noteNumber":43,"velocity":0},{"deltaTime":7680,"channel":0,"type":"channel","noteNumber":36,"velocity":97,"subtype":"noteOn"},{"deltaTime":0,"channel":0,"type":"channel","noteNumber":37,"velocity":97,"subtype":"noteOn"},{"deltaTime":0,"channel":0,"type":"channel","noteNumber":45,"velocity":97,"subtype":"noteOn"},{"deltaTime":7680,"channel":0,"type":"channel","subtype":"noteOff","noteNumber":36,"velocity":0},{"deltaTime":0,"channel":0,"type":"channel","subtype":"noteOff","noteNumber":37,"velocity":0},{"deltaTime":0,"channel":0,"type":"channel","subtype":"noteOff","noteNumber":45,"velocity":0},{"deltaTime":7680,"channel":0,"type":"channel","noteNumber":36,"velocity":97,"subtype":"noteOn"},{"deltaTime":7680,"channel":0,"type":"channel","subtype":"noteOff","noteNumber":36,"velocity":0},{"deltaTime":0,"channel":0,"type":"channel","noteNumber":44,"velocity":97,"subtype":"noteOn"},{"deltaTime":7680,"channel":0,"type":"channel","subtype":"noteOff","noteNumber":44,"velocity":0},{"deltaTime":0,"channel":0,"type":"channel","noteNumber":36,"velocity":97,"subtype":"noteOn"},{"deltaTime":0,"channel":0,"type":"channel","noteNumber":37,"velocity":97,"subtype":"noteOn"},{"deltaTime":7680,"channel":0,"type":"channel","subtype":"noteOff","noteNumber":36,"velocity":0},{"deltaTime":0,"channel":0,"type":"channel","subtype":"noteOff","noteNumber":37,"velocity":0},{"deltaTime":3840,"channel":0,"type":"channel","noteNumber":41,"velocity":96,"subtype":"noteOn"},{"deltaTime":3840,"channel":0,"type":"channel","subtype":"noteOff","noteNumber":41,"velocity":0},{"deltaTime":0,"channel":0,"type":"channel","noteNumber":36,"velocity":97,"subtype":"noteOn"},{"deltaTime":0,"channel":0,"type":"channel","noteNumber":43,"velocity":97,"subtype":"noteOn"},{"deltaTime":7680,"channel":0,"type":"channel","subtype":"noteOff","noteNumber":36,"velocity":0},{"deltaTime":0,"channel":0,"type":"channel","subtype":"noteOff","noteNumber":43,"velocity":0},{"deltaTime":7680,"channel":0,"type":"channel","noteNumber":36,"velocity":97,"subtype":"noteOn"},{"deltaTime":0,"channel":0,"type":"channel","noteNumber":37,"velocity":97,"subtype":"noteOn"},{"deltaTime":0,"channel":0,"type":"channel","noteNumber":45,"velocity":97,"subtype":"noteOn"},{"deltaTime":7680,"channel":0,"type":"channel","subtype":"noteOff","noteNumber":36,"velocity":0},{"deltaTime":0,"channel":0,"type":"channel","subtype":"noteOff","noteNumber":37,"velocity":0},{"deltaTime":0,"channel":0,"type":"channel","subtype":"noteOff","noteNumber":45,"velocity":0},{"deltaTime":7680,"channel":0,"type":"channel","noteNumber":36,"velocity":97,"subtype":"noteOn"},{"deltaTime":7680,"channel":0,"type":"channel","subtype":"noteOff","noteNumber":36,"velocity":0},{"deltaTime":0,"channel":0,"type":"channel","noteNumber":44,"velocity":97,"subtype":"noteOn"},{"deltaTime":7680,"channel":0,"type":"channel","subtype":"noteOff","noteNumber":44,"velocity":0},{"deltaTime":0,"channel":0,"type":"channel","noteNumber":36,"velocity":97,"subtype":"noteOn"},{"deltaTime":0,"channel":0,"type":"channel","noteNumber":37,"velocity":97,"subtype":"noteOn"},{"deltaTime":7680,"channel":0,"type":"channel","subtype":"noteOff","noteNumber":36,"velocity":0},{"deltaTime":0,"channel":0,"type":"channel","subtype":"noteOff","noteNumber":37,"velocity":0},{"deltaTime":3840,"channel":0,"type":"channel","noteNumber":41,"velocity":97,"subtype":"noteOn"},{"deltaTime":3840,"channel":0,"type":"channel","subtype":"noteOff","noteNumber":41,"velocity":0},{"deltaTime":0,"channel":0,"type":"channel","noteNumber":36,"velocity":97,"subtype":"noteOn"},{"deltaTime":0,"channel":0,"type":"channel","noteNumber":43,"velocity":97,"subtype":"noteOn"},{"deltaTime":7680,"channel":0,"type":"channel","subtype":"noteOff","noteNumber":36,"velocity":0},{"deltaTime":0,"channel":0,"type":"channel","subtype":"noteOff","noteNumber":43,"velocity":0},{"deltaTime":7680,"channel":0,"type":"channel","noteNumber":36,"velocity":97,"subtype":"noteOn"},{"deltaTime":0,"channel":0,"type":"channel","noteNumber":37,"velocity":97,"subtype":"noteOn"},{"deltaTime":0,"channel":0,"type":"channel","noteNumber":45,"velocity":97,"subtype":"noteOn"},{"deltaTime":7680,"channel":0,"type":"channel","subtype":"noteOff","noteNumber":36,"velocity":0},{"deltaTime":0,"channel":0,"type":"channel","subtype":"noteOff","noteNumber":37,"velocity":0},{"deltaTime":0,"channel":0,"type":"channel","subtype":"noteOff","noteNumber":45,"velocity":0},{"deltaTime":7680,"channel":0,"type":"channel","noteNumber":36,"velocity":97,"subtype":"noteOn"},{"deltaTime":7680,"channel":0,"type":"channel","subtype":"noteOff","noteNumber":36,"velocity":0},{"deltaTime":0,"channel":0,"type":"channel","noteNumber":44,"velocity":97,"subtype":"noteOn"},{"deltaTime":7680,"channel":0,"type":"channel","subtype":"noteOff","noteNumber":44,"velocity":0},{"deltaTime":0,"channel":0,"type":"channel","noteNumber":36,"velocity":97,"subtype":"noteOn"},{"deltaTime":0,"channel":0,"type":"channel","noteNumber":37,"velocity":97,"subtype":"noteOn"},{"deltaTime":7680,"channel":0,"type":"channel","subtype":"noteOff","noteNumber":36,"velocity":0},{"deltaTime":0,"channel":0,"type":"channel","subtype":"noteOff","noteNumber":37,"velocity":0},{"deltaTime":3840,"channel":0,"type":"channel","noteNumber":41,"velocity":96,"subtype":"noteOn"},{"deltaTime":3840,"channel":0,"type":"channel","subtype":"noteOff","noteNumber":41,"velocity":0},{"deltaTime":0,"channel":0,"type":"channel","noteNumber":36,"velocity":97,"subtype":"noteOn"},{"deltaTime":0,"channel":0,"type":"channel","noteNumber":43,"velocity":97,"subtype":"noteOn"},{"deltaTime":7680,"channel":0,"type":"channel","subtype":"noteOff","noteNumber":36,"velocity":0},{"deltaTime":0,"channel":0,"type":"channel","subtype":"noteOff","noteNumber":43,"velocity":0},{"deltaTime":7680,"channel":0,"type":"channel","noteNumber":36,"velocity":97,"subtype":"noteOn"},{"deltaTime":0,"channel":0,"type":"channel","noteNumber":37,"velocity":97,"subtype":"noteOn"},{"deltaTime":0,"channel":0,"type":"channel","noteNumber":45,"velocity":97,"subtype":"noteOn"},{"deltaTime":7680,"channel":0,"type":"channel","subtype":"noteOff","noteNumber":36,"velocity":0},{"deltaTime":0,"channel":0,"type":"channel","subtype":"noteOff","noteNumber":37,"velocity":0},{"deltaTime":0,"channel":0,"type":"channel","subtype":"noteOff","noteNumber":45,"velocity":0},{"deltaTime":7680,"channel":0,"type":"channel","noteNumber":36,"velocity":97,"subtype":"noteOn"},{"deltaTime":7680,"channel":0,"type":"channel","subtype":"noteOff","noteNumber":36,"velocity":0},{"deltaTime":0,"channel":0,"type":"channel","noteNumber":44,"velocity":97,"subtype":"noteOn"},{"deltaTime":7680,"channel":0,"type":"channel","subtype":"noteOff","noteNumber":44,"velocity":0},{"deltaTime":0,"channel":0,"type":"channel","noteNumber":36,"velocity":97,"subtype":"noteOn"},{"deltaTime":0,"channel":0,"type":"channel","noteNumber":37,"velocity":97,"subtype":"noteOn"},{"deltaTime":7680,"channel":0,"type":"channel","subtype":"noteOff","noteNumber":36,"velocity":0},{"deltaTime":0,"channel":0,"type":"channel","subtype":"noteOff","noteNumber":37,"velocity":0},{"deltaTime":3840,"channel":0,"type":"channel","noteNumber":41,"velocity":97,"subtype":"noteOn"},{"deltaTime":3840,"channel":0,"type":"channel","subtype":"noteOff","noteNumber":41,"velocity":0},{"deltaTime":0,"channel":0,"type":"channel","noteNumber":36,"velocity":97,"subtype":"noteOn"},{"deltaTime":0,"channel":0,"type":"channel","noteNumber":43,"velocity":97,"subtype":"noteOn"},{"deltaTime":7680,"channel":0,"type":"channel","subtype":"noteOff","noteNumber":36,"velocity":0},{"deltaTime":0,"channel":0,"type":"channel","subtype":"noteOff","noteNumber":43,"velocity":0},{"deltaTime":7680,"channel":0,"type":"channel","noteNumber":36,"velocity":97,"subtype":"noteOn"},{"deltaTime":0,"channel":0,"type":"channel","noteNumber":37,"velocity":97,"subtype":"noteOn"},{"deltaTime":0,"channel":0,"type":"channel","noteNumber":45,"velocity":97,"subtype":"noteOn"},{"deltaTime":7680,"channel":0,"type":"channel","subtype":"noteOff","noteNumber":36,"velocity":0},{"deltaTime":0,"channel":0,"type":"channel","subtype":"noteOff","noteNumber":37,"velocity":0},{"deltaTime":0,"channel":0,"type":"channel","subtype":"noteOff","noteNumber":45,"velocity":0},{"deltaTime":7680,"channel":0,"type":"channel","noteNumber":36,"velocity":97,"subtype":"noteOn"},{"deltaTime":7680,"channel":0,"type":"channel","subtype":"noteOff","noteNumber":36,"velocity":0},{"deltaTime":0,"channel":0,"type":"channel","noteNumber":44,"velocity":97,"subtype":"noteOn"},{"deltaTime":7680,"channel":0,"type":"channel","subtype":"noteOff","noteNumber":44,"velocity":0},{"deltaTime":0,"channel":0,"type":"channel","noteNumber":36,"velocity":97,"subtype":"noteOn"},{"deltaTime":0,"channel":0,"type":"channel","noteNumber":37,"velocity":97,"subtype":"noteOn"},{"deltaTime":7680,"channel":0,"type":"channel","subtype":"noteOff","noteNumber":36,"velocity":0},{"deltaTime":0,"channel":0,"type":"channel","subtype":"noteOff","noteNumber":37,"velocity":0},{"deltaTime":3840,"channel":0,"type":"channel","noteNumber":41,"velocity":96,"subtype":"noteOn"},{"deltaTime":3840,"channel":0,"type":"channel","subtype":"noteOff","noteNumber":41,"velocity":0},{"deltaTime":0,"channel":0,"type":"channel","noteNumber":36,"velocity":97,"subtype":"noteOn"},{"deltaTime":0,"channel":0,"type":"channel","noteNumber":43,"velocity":97,"subtype":"noteOn"},{"deltaTime":7680,"channel":0,"type":"channel","subtype":"noteOff","noteNumber":36,"velocity":0},{"deltaTime":0,"channel":0,"type":"channel","subtype":"noteOff","noteNumber":43,"velocity":0},{"deltaTime":7680,"channel":0,"type":"channel","noteNumber":36,"velocity":97,"subtype":"noteOn"},{"deltaTime":0,"channel":0,"type":"channel","noteNumber":37,"velocity":97,"subtype":"noteOn"},{"deltaTime":0,"channel":0,"type":"channel","noteNumber":45,"velocity":97,"subtype":"noteOn"},{"deltaTime":7680,"channel":0,"type":"channel","subtype":"noteOff","noteNumber":36,"velocity":0},{"deltaTime":0,"channel":0,"type":"channel","subtype":"noteOff","noteNumber":37,"velocity":0},{"deltaTime":0,"channel":0,"type":"channel","subtype":"noteOff","noteNumber":45,"velocity":0},{"deltaTime":7680,"channel":0,"type":"channel","noteNumber":36,"velocity":97,"subtype":"noteOn"},{"deltaTime":7680,"channel":0,"type":"channel","subtype":"noteOff","noteNumber":36,"velocity":0},{"deltaTime":0,"channel":0,"type":"channel","noteNumber":44,"velocity":97,"subtype":"noteOn"},{"deltaTime":7680,"channel":0,"type":"channel","subtype":"noteOff","noteNumber":44,"velocity":0},{"deltaTime":0,"channel":0,"type":"channel","noteNumber":36,"velocity":97,"subtype":"noteOn"},{"deltaTime":0,"channel":0,"type":"channel","noteNumber":37,"velocity":97,"subtype":"noteOn"},{"deltaTime":7680,"channel":0,"type":"channel","subtype":"noteOff","noteNumber":36,"velocity":0},{"deltaTime":0,"channel":0,"type":"channel","subtype":"noteOff","noteNumber":37,"velocity":0},{"deltaTime":3840,"channel":0,"type":"channel","noteNumber":41,"velocity":97,"subtype":"noteOn"},{"deltaTime":3840,"channel":0,"type":"channel","subtype":"noteOff","noteNumber":41,"velocity":0},{"deltaTime":0,"channel":0,"type":"channel","noteNumber":36,"velocity":97,"subtype":"noteOn"},{"deltaTime":0,"channel":0,"type":"channel","noteNumber":43,"velocity":97,"subtype":"noteOn"},{"deltaTime":7680,"channel":0,"type":"channel","subtype":"noteOff","noteNumber":36,"velocity":0},{"deltaTime":0,"channel":0,"type":"channel","subtype":"noteOff","noteNumber":43,"velocity":0},{"deltaTime":7680,"channel":0,"type":"channel","noteNumber":36,"velocity":97,"subtype":"noteOn"},{"deltaTime":0,"channel":0,"type":"channel","noteNumber":37,"velocity":97,"subtype":"noteOn"},{"deltaTime":0,"channel":0,"type":"channel","noteNumber":45,"velocity":97,"subtype":"noteOn"},{"deltaTime":7680,"channel":0,"type":"channel","subtype":"noteOff","noteNumber":36,"velocity":0},{"deltaTime":0,"channel":0,"type":"channel","subtype":"noteOff","noteNumber":37,"velocity":0},{"deltaTime":0,"channel":0,"type":"channel","subtype":"noteOff","noteNumber":45,"velocity":0},{"deltaTime":7680,"channel":0,"type":"channel","noteNumber":36,"velocity":97,"subtype":"noteOn"},{"deltaTime":7680,"channel":0,"type":"channel","subtype":"noteOff","noteNumber":36,"velocity":0},{"deltaTime":0,"channel":0,"type":"channel","noteNumber":44,"velocity":97,"subtype":"noteOn"},{"deltaTime":7680,"channel":0,"type":"channel","subtype":"noteOff","noteNumber":44,"velocity":0},{"deltaTime":0,"channel":0,"type":"channel","noteNumber":36,"velocity":97,"subtype":"noteOn"},{"deltaTime":0,"channel":0,"type":"channel","noteNumber":37,"velocity":97,"subtype":"noteOn"},{"deltaTime":7680,"channel":0,"type":"channel","subtype":"noteOff","noteNumber":36,"velocity":0},{"deltaTime":0,"channel":0,"type":"channel","subtype":"noteOff","noteNumber":37,"velocity":0},{"deltaTime":3840,"channel":0,"type":"channel","noteNumber":41,"velocity":96,"subtype":"noteOn"},{"deltaTime":3840,"channel":0,"type":"channel","subtype":"noteOff","noteNumber":41,"velocity":0},{"deltaTime":0,"channel":0,"type":"channel","noteNumber":36,"velocity":97,"subtype":"noteOn"},{"deltaTime":0,"channel":0,"type":"channel","noteNumber":43,"velocity":97,"subtype":"noteOn"},{"deltaTime":7680,"channel":0,"type":"channel","subtype":"noteOff","noteNumber":36,"velocity":0},{"deltaTime":0,"channel":0,"type":"channel","subtype":"noteOff","noteNumber":43,"velocity":0},{"deltaTime":7680,"channel":0,"type":"channel","noteNumber":36,"velocity":97,"subtype":"noteOn"},{"deltaTime":0,"channel":0,"type":"channel","noteNumber":37,"velocity":97,"subtype":"noteOn"},{"deltaTime":0,"channel":0,"type":"channel","noteNumber":45,"velocity":97,"subtype":"noteOn"},{"deltaTime":7680,"channel":0,"type":"channel","subtype":"noteOff","noteNumber":36,"velocity":0},{"deltaTime":0,"channel":0,"type":"channel","subtype":"noteOff","noteNumber":37,"velocity":0},{"deltaTime":0,"channel":0,"type":"channel","subtype":"noteOff","noteNumber":45,"velocity":0},{"deltaTime":7680,"channel":0,"type":"channel","noteNumber":36,"velocity":97,"subtype":"noteOn"},{"deltaTime":7680,"channel":0,"type":"channel","subtype":"noteOff","noteNumber":36,"velocity":0},{"deltaTime":0,"channel":0,"type":"channel","noteNumber":44,"velocity":97,"subtype":"noteOn"},{"deltaTime":7680,"channel":0,"type":"channel","subtype":"noteOff","noteNumber":44,"velocity":0},{"deltaTime":0,"channel":0,"type":"channel","noteNumber":36,"velocity":97,"subtype":"noteOn"},{"deltaTime":0,"channel":0,"type":"channel","noteNumber":37,"velocity":97,"subtype":"noteOn"},{"deltaTime":7680,"channel":0,"type":"channel","subtype":"noteOff","noteNumber":36,"velocity":0},{"deltaTime":0,"channel":0,"type":"channel","subtype":"noteOff","noteNumber":37,"velocity":0},{"deltaTime":3840,"channel":0,"type":"channel","noteNumber":41,"velocity":97,"subtype":"noteOn"},{"deltaTime":3840,"channel":0,"type":"channel","subtype":"noteOff","noteNumber":41,"velocity":0},{"deltaTime":0,"channel":0,"type":"channel","noteNumber":36,"velocity":97,"subtype":"noteOn"},{"deltaTime":0,"channel":0,"type":"channel","noteNumber":43,"velocity":97,"subtype":"noteOn"},{"deltaTime":7680,"channel":0,"type":"channel","subtype":"noteOff","noteNumber":36,"velocity":0},{"deltaTime":0,"channel":0,"type":"channel","subtype":"noteOff","noteNumber":43,"velocity":0},{"deltaTime":7680,"channel":0,"type":"channel","noteNumber":36,"velocity":97,"subtype":"noteOn"},{"deltaTime":0,"channel":0,"type":"channel","noteNumber":37,"velocity":97,"subtype":"noteOn"},{"deltaTime":0,"channel":0,"type":"channel","noteNumber":45,"velocity":97,"subtype":"noteOn"},{"deltaTime":7680,"channel":0,"type":"channel","subtype":"noteOff","noteNumber":36,"velocity":0},{"deltaTime":0,"channel":0,"type":"channel","subtype":"noteOff","noteNumber":37,"velocity":0},{"deltaTime":0,"channel":0,"type":"channel","subtype":"noteOff","noteNumber":45,"velocity":0},{"deltaTime":7680,"channel":0,"type":"channel","noteNumber":36,"velocity":97,"subtype":"noteOn"},{"deltaTime":7680,"channel":0,"type":"channel","subtype":"noteOff","noteNumber":36,"velocity":0},{"deltaTime":0,"channel":0,"type":"channel","noteNumber":44,"velocity":97,"subtype":"noteOn"},{"deltaTime":7680,"channel":0,"type":"channel","subtype":"noteOff","noteNumber":44,"velocity":0},{"deltaTime":0,"channel":0,"type":"channel","noteNumber":36,"velocity":97,"subtype":"noteOn"},{"deltaTime":0,"channel":0,"type":"channel","noteNumber":37,"velocity":97,"subtype":"noteOn"},{"deltaTime":7680,"channel":0,"type":"channel","subtype":"noteOff","noteNumber":36,"velocity":0},{"deltaTime":0,"channel":0,"type":"channel","subtype":"noteOff","noteNumber":37,"velocity":0},{"deltaTime":3840,"channel":0,"type":"channel","noteNumber":41,"velocity":96,"subtype":"noteOn"},{"deltaTime":3840,"channel":0,"type":"channel","subtype":"noteOff","noteNumber":41,"velocity":0},{"deltaTime":61440,"type":"meta","subtype":"endOfTrack"}],[{"deltaTime":0,"type":"meta","subtype":"trackName","text":"Thor 1"},{"deltaTime":0,"type":"meta","subtype":"instrumentName","text":"Thor 1"},{"deltaTime":0,"type":"meta","subtype":"unknown","data":"\b"},{"deltaTime":122880,"channel":0,"type":"channel","noteNumber":36,"velocity":100,"subtype":"noteOn"},{"deltaTime":1920,"channel":0,"type":"channel","subtype":"noteOff","noteNumber":36,"velocity":0},{"deltaTime":5760,"channel":0,"type":"channel","noteNumber":36,"velocity":100,"subtype":"noteOn"},{"deltaTime":1920,"channel":0,"type":"channel","subtype":"noteOff","noteNumber":36,"velocity":0},{"deltaTime":5760,"channel":0,"type":"channel","noteNumber":36,"velocity":100,"subtype":"noteOn"},{"deltaTime":1920,"channel":0,"type":"channel","subtype":"noteOff","noteNumber":36,"velocity":0},{"deltaTime":5760,"channel":0,"type":"channel","noteNumber":36,"velocity":100,"subtype":"noteOn"},{"deltaTime":1920,"channel":0,"type":"channel","subtype":"noteOff","noteNumber":36,"velocity":0},{"deltaTime":5760,"channel":0,"type":"channel","noteNumber":43,"velocity":100,"subtype":"noteOn"},{"deltaTime":1920,"channel":0,"type":"channel","subtype":"noteOff","noteNumber":43,"velocity":0},{"deltaTime":5760,"channel":0,"type":"channel","noteNumber":43,"velocity":100,"subtype":"noteOn"},{"deltaTime":1920,"channel":0,"type":"channel","subtype":"noteOff","noteNumber":43,"velocity":0},{"deltaTime":5760,"channel":0,"type":"channel","noteNumber":43,"velocity":100,"subtype":"noteOn"},{"deltaTime":1920,"channel":0,"type":"channel","subtype":"noteOff","noteNumber":43,"velocity":0},{"deltaTime":5760,"channel":0,"type":"channel","noteNumber":43,"velocity":100,"subtype":"noteOn"},{"deltaTime":1920,"channel":0,"type":"channel","subtype":"noteOff","noteNumber":43,"velocity":0},{"deltaTime":5760,"channel":0,"type":"channel","noteNumber":41,"velocity":100,"subtype":"noteOn"},{"deltaTime":1920,"channel":0,"type":"channel","subtype":"noteOff","noteNumber":41,"velocity":0},{"deltaTime":5760,"channel":0,"type":"channel","noteNumber":41,"velocity":100,"subtype":"noteOn"},{"deltaTime":1920,"channel":0,"type":"channel","subtype":"noteOff","noteNumber":41,"velocity":0},{"deltaTime":5760,"channel":0,"type":"channel","noteNumber":41,"velocity":100,"subtype":"noteOn"},{"deltaTime":1920,"channel":0,"type":"channel","subtype":"noteOff","noteNumber":41,"velocity":0},{"deltaTime":5760,"channel":0,"type":"channel","noteNumber":41,"velocity":100,"subtype":"noteOn"},{"deltaTime":1920,"channel":0,"type":"channel","subtype":"noteOff","noteNumber":41,"velocity":0},{"deltaTime":5760,"channel":0,"type":"channel","noteNumber":43,"velocity":100,"subtype":"noteOn"},{"deltaTime":1920,"channel":0,"type":"channel","subtype":"noteOff","noteNumber":43,"velocity":0},{"deltaTime":5760,"channel":0,"type":"channel","noteNumber":43,"velocity":100,"subtype":"noteOn"},{"deltaTime":1920,"channel":0,"type":"channel","subtype":"noteOff","noteNumber":43,"velocity":0},{"deltaTime":5760,"channel":0,"type":"channel","noteNumber":43,"velocity":100,"subtype":"noteOn"},{"deltaTime":1920,"channel":0,"type":"channel","subtype":"noteOff","noteNumber":43,"velocity":0},{"deltaTime":5760,"channel":0,"type":"channel","noteNumber":43,"velocity":100,"subtype":"noteOn"},{"deltaTime":1920,"channel":0,"type":"channel","subtype":"noteOff","noteNumber":43,"velocity":0},{"deltaTime":5760,"channel":0,"type":"channel","noteNumber":36,"velocity":100,"subtype":"noteOn"},{"deltaTime":1920,"channel":0,"type":"channel","subtype":"noteOff","noteNumber":36,"velocity":0},{"deltaTime":13440,"channel":0,"type":"channel","noteNumber":36,"velocity":100,"subtype":"noteOn"},{"deltaTime":1920,"channel":0,"type":"channel","subtype":"noteOff","noteNumber":36,"velocity":0},{"deltaTime":13440,"channel":0,"type":"channel","noteNumber":36,"velocity":100,"subtype":"noteOn"},{"deltaTime":1920,"channel":0,"type":"channel","subtype":"noteOff","noteNumber":36,"velocity":0},{"deltaTime":13440,"channel":0,"type":"channel","noteNumber":36,"velocity":100,"subtype":"noteOn"},{"deltaTime":1920,"channel":0,"type":"channel","subtype":"noteOff","noteNumber":36,"velocity":0},{"deltaTime":13440,"channel":0,"type":"channel","noteNumber":36,"velocity":100,"subtype":"noteOn"},{"deltaTime":1920,"channel":0,"type":"channel","subtype":"noteOff","noteNumber":36,"velocity":0},{"deltaTime":13440,"channel":0,"type":"channel","noteNumber":36,"velocity":100,"subtype":"noteOn"},{"deltaTime":1920,"channel":0,"type":"channel","subtype":"noteOff","noteNumber":36,"velocity":0},{"deltaTime":13440,"channel":0,"type":"channel","noteNumber":36,"velocity":100,"subtype":"noteOn"},{"deltaTime":1920,"channel":0,"type":"channel","subtype":"noteOff","noteNumber":36,"velocity":0},{"deltaTime":5760,"channel":0,"type":"channel","noteNumber":36,"velocity":100,"subtype":"noteOn"},{"deltaTime":1920,"channel":0,"type":"channel","subtype":"noteOff","noteNumber":36,"velocity":0},{"deltaTime":5760,"channel":0,"type":"channel","noteNumber":36,"velocity":100,"subtype":"noteOn"},{"deltaTime":1920,"channel":0,"type":"channel","subtype":"noteOff","noteNumber":36,"velocity":0},{"deltaTime":13440,"channel":0,"type":"channel","noteNumber":36,"velocity":100,"subtype":"noteOn"},{"deltaTime":1920,"channel":0,"type":"channel","subtype":"noteOff","noteNumber":36,"velocity":0},{"deltaTime":5760,"channel":0,"type":"channel","noteNumber":36,"velocity":100,"subtype":"noteOn"},{"deltaTime":1920,"channel":0,"type":"channel","subtype":"noteOff","noteNumber":36,"velocity":0},{"deltaTime":5760,"channel":0,"type":"channel","noteNumber":36,"velocity":100,"subtype":"noteOn"},{"deltaTime":1920,"channel":0,"type":"channel","subtype":"noteOff","noteNumber":36,"velocity":0},{"deltaTime":5760,"channel":0,"type":"channel","noteNumber":36,"velocity":100,"subtype":"noteOn"},{"deltaTime":1920,"channel":0,"type":"channel","subtype":"noteOff","noteNumber":36,"velocity":0},{"deltaTime":5760,"channel":0,"type":"channel","noteNumber":41,"velocity":100,"subtype":"noteOn"},{"deltaTime":1920,"channel":0,"type":"channel","subtype":"noteOff","noteNumber":41,"velocity":0},{"deltaTime":5760,"channel":0,"type":"channel","noteNumber":41,"velocity":100,"subtype":"noteOn"},{"deltaTime":1920,"channel":0,"type":"channel","subtype":"noteOff","noteNumber":41,"velocity":0},{"deltaTime":5760,"channel":0,"type":"channel","noteNumber":41,"velocity":100,"subtype":"noteOn"},{"deltaTime":1920,"channel":0,"type":"channel","subtype":"noteOff","noteNumber":41,"velocity":0},{"deltaTime":5760,"channel":0,"type":"channel","noteNumber":41,"velocity":100,"subtype":"noteOn"},{"deltaTime":1920,"channel":0,"type":"channel","subtype":"noteOff","noteNumber":41,"velocity":0},{"deltaTime":5760,"channel":0,"type":"channel","noteNumber":40,"velocity":100,"subtype":"noteOn"},{"deltaTime":1920,"channel":0,"type":"channel","subtype":"noteOff","noteNumber":40,"velocity":0},{"deltaTime":5760,"channel":0,"type":"channel","noteNumber":40,"velocity":100,"subtype":"noteOn"},{"deltaTime":1920,"channel":0,"type":"channel","subtype":"noteOff","noteNumber":40,"velocity":0},{"deltaTime":5760,"channel":0,"type":"channel","noteNumber":40,"velocity":100,"subtype":"noteOn"},{"deltaTime":1920,"channel":0,"type":"channel","subtype":"noteOff","noteNumber":40,"velocity":0},{"deltaTime":5760,"channel":0,"type":"channel","noteNumber":40,"velocity":100,"subtype":"noteOn"},{"deltaTime":1920,"channel":0,"type":"channel","subtype":"noteOff","noteNumber":40,"velocity":0},{"deltaTime":5760,"channel":0,"type":"channel","noteNumber":43,"velocity":100,"subtype":"noteOn"},{"deltaTime":1920,"channel":0,"type":"channel","subtype":"noteOff","noteNumber":43,"velocity":0},{"deltaTime":5760,"channel":0,"type":"channel","noteNumber":43,"velocity":100,"subtype":"noteOn"},{"deltaTime":1920,"channel":0,"type":"channel","subtype":"noteOff","noteNumber":43,"velocity":0},{"deltaTime":5760,"channel":0,"type":"channel","noteNumber":43,"velocity":100,"subtype":"noteOn"},{"deltaTime":1920,"channel":0,"type":"channel","subtype":"noteOff","noteNumber":43,"velocity":0},{"deltaTime":5760,"channel":0,"type":"channel","noteNumber":43,"velocity":100,"subtype":"noteOn"},{"deltaTime":1920,"channel":0,"type":"channel","subtype":"noteOff","noteNumber":43,"velocity":0},{"deltaTime":5760,"channel":0,"type":"channel","noteNumber":36,"velocity":100,"subtype":"noteOn"},{"deltaTime":1920,"channel":0,"type":"channel","subtype":"noteOff","noteNumber":36,"velocity":0},{"deltaTime":5760,"channel":0,"type":"channel","noteNumber":36,"velocity":100,"subtype":"noteOn"},{"deltaTime":1920,"channel":0,"type":"channel","subtype":"noteOff","noteNumber":36,"velocity":0},{"deltaTime":5760,"channel":0,"type":"channel","noteNumber":36,"velocity":100,"subtype":"noteOn"},{"deltaTime":1920,"channel":0,"type":"channel","subtype":"noteOff","noteNumber":36,"velocity":0},{"deltaTime":5760,"channel":0,"type":"channel","noteNumber":36,"velocity":100,"subtype":"noteOn"},{"deltaTime":1920,"channel":0,"type":"channel","subtype":"noteOff","noteNumber":36,"velocity":0},{"deltaTime":5760,"channel":0,"type":"channel","noteNumber":43,"velocity":100,"subtype":"noteOn"},{"deltaTime":1920,"channel":0,"type":"channel","subtype":"noteOff","noteNumber":43,"velocity":0},{"deltaTime":5760,"channel":0,"type":"channel","noteNumber":43,"velocity":100,"subtype":"noteOn"},{"deltaTime":1920,"channel":0,"type":"channel","subtype":"noteOff","noteNumber":43,"velocity":0},{"deltaTime":5760,"channel":0,"type":"channel","noteNumber":43,"velocity":100,"subtype":"noteOn"},{"deltaTime":1920,"channel":0,"type":"channel","subtype":"noteOff","noteNumber":43,"velocity":0},{"deltaTime":5760,"channel":0,"type":"channel","noteNumber":43,"velocity":100,"subtype":"noteOn"},{"deltaTime":1920,"channel":0,"type":"channel","subtype":"noteOff","noteNumber":43,"velocity":0},{"deltaTime":5760,"channel":0,"type":"channel","noteNumber":41,"velocity":100,"subtype":"noteOn"},{"deltaTime":1920,"channel":0,"type":"channel","subtype":"noteOff","noteNumber":41,"velocity":0},{"deltaTime":5760,"channel":0,"type":"channel","noteNumber":41,"velocity":100,"subtype":"noteOn"},{"deltaTime":1920,"channel":0,"type":"channel","subtype":"noteOff","noteNumber":41,"velocity":0},{"deltaTime":5760,"channel":0,"type":"channel","noteNumber":41,"velocity":100,"subtype":"noteOn"},{"deltaTime":1920,"channel":0,"type":"channel","subtype":"noteOff","noteNumber":41,"velocity":0},{"deltaTime":5760,"channel":0,"type":"channel","noteNumber":41,"velocity":100,"subtype":"noteOn"},{"deltaTime":1920,"channel":0,"type":"channel","subtype":"noteOff","noteNumber":41,"velocity":0},{"deltaTime":5760,"channel":0,"type":"channel","noteNumber":43,"velocity":100,"subtype":"noteOn"},{"deltaTime":1920,"channel":0,"type":"channel","subtype":"noteOff","noteNumber":43,"velocity":0},{"deltaTime":5760,"channel":0,"type":"channel","noteNumber":43,"velocity":100,"subtype":"noteOn"},{"deltaTime":1920,"channel":0,"type":"channel","subtype":"noteOff","noteNumber":43,"velocity":0},{"deltaTime":5760,"channel":0,"type":"channel","noteNumber":43,"velocity":100,"subtype":"noteOn"},{"deltaTime":1920,"channel":0,"type":"channel","subtype":"noteOff","noteNumber":43,"velocity":0},{"deltaTime":5760,"channel":0,"type":"channel","noteNumber":43,"velocity":100,"subtype":"noteOn"},{"deltaTime":1920,"channel":0,"type":"channel","subtype":"noteOff","noteNumber":43,"velocity":0},{"deltaTime":5760,"channel":0,"type":"channel","noteNumber":36,"velocity":100,"subtype":"noteOn"},{"deltaTime":1920,"channel":0,"type":"channel","subtype":"noteOff","noteNumber":36,"velocity":0},{"deltaTime":5760,"channel":0,"type":"channel","noteNumber":36,"velocity":100,"subtype":"noteOn"},{"deltaTime":1920,"channel":0,"type":"channel","subtype":"noteOff","noteNumber":36,"velocity":0},{"deltaTime":5760,"channel":0,"type":"channel","noteNumber":36,"velocity":100,"subtype":"noteOn"},{"deltaTime":1920,"channel":0,"type":"channel","subtype":"noteOff","noteNumber":36,"velocity":0},{"deltaTime":5760,"channel":0,"type":"channel","noteNumber":36,"velocity":100,"subtype":"noteOn"},{"deltaTime":1920,"channel":0,"type":"channel","subtype":"noteOff","noteNumber":36,"velocity":0},{"deltaTime":5760,"channel":0,"type":"channel","noteNumber":41,"velocity":100,"subtype":"noteOn"},{"deltaTime":1920,"channel":0,"type":"channel","subtype":"noteOff","noteNumber":41,"velocity":0},{"deltaTime":5760,"channel":0,"type":"channel","noteNumber":41,"velocity":100,"subtype":"noteOn"},{"deltaTime":1920,"channel":0,"type":"channel","subtype":"noteOff","noteNumber":41,"velocity":0},{"deltaTime":5760,"channel":0,"type":"channel","noteNumber":41,"velocity":100,"subtype":"noteOn"},{"deltaTime":1920,"channel":0,"type":"channel","subtype":"noteOff","noteNumber":41,"velocity":0},{"deltaTime":5760,"channel":0,"type":"channel","noteNumber":41,"velocity":100,"subtype":"noteOn"},{"deltaTime":1920,"channel":0,"type":"channel","subtype":"noteOff","noteNumber":41,"velocity":0},{"deltaTime":5760,"channel":0,"type":"channel","noteNumber":40,"velocity":100,"subtype":"noteOn"},{"deltaTime":1920,"channel":0,"type":"channel","subtype":"noteOff","noteNumber":40,"velocity":0},{"deltaTime":5760,"channel":0,"type":"channel","noteNumber":40,"velocity":100,"subtype":"noteOn"},{"deltaTime":1920,"channel":0,"type":"channel","subtype":"noteOff","noteNumber":40,"velocity":0},{"deltaTime":5760,"channel":0,"type":"channel","noteNumber":40,"velocity":100,"subtype":"noteOn"},{"deltaTime":1920,"channel":0,"type":"channel","subtype":"noteOff","noteNumber":40,"velocity":0},{"deltaTime":5760,"channel":0,"type":"channel","noteNumber":40,"velocity":100,"subtype":"noteOn"},{"deltaTime":1920,"channel":0,"type":"channel","subtype":"noteOff","noteNumber":40,"velocity":0},{"deltaTime":5760,"channel":0,"type":"channel","noteNumber":43,"velocity":100,"subtype":"noteOn"},{"deltaTime":1920,"channel":0,"type":"channel","subtype":"noteOff","noteNumber":43,"velocity":0},{"deltaTime":5760,"channel":0,"type":"channel","noteNumber":43,"velocity":100,"subtype":"noteOn"},{"deltaTime":1920,"channel":0,"type":"channel","subtype":"noteOff","noteNumber":43,"velocity":0},{"deltaTime":5760,"channel":0,"type":"channel","noteNumber":43,"velocity":100,"subtype":"noteOn"},{"deltaTime":1920,"channel":0,"type":"channel","subtype":"noteOff","noteNumber":43,"velocity":0},{"deltaTime":5760,"channel":0,"type":"channel","noteNumber":43,"velocity":100,"subtype":"noteOn"},{"deltaTime":1920,"channel":0,"type":"channel","subtype":"noteOff","noteNumber":43,"velocity":0},{"deltaTime":5760,"channel":0,"type":"channel","noteNumber":36,"velocity":100,"subtype":"noteOn"},{"deltaTime":1920,"channel":0,"type":"channel","subtype":"noteOff","noteNumber":36,"velocity":0},{"deltaTime":5760,"channel":0,"type":"channel","noteNumber":36,"velocity":100,"subtype":"noteOn"},{"deltaTime":1920,"channel":0,"type":"channel","subtype":"noteOff","noteNumber":36,"velocity":0},{"deltaTime":5760,"channel":0,"type":"channel","noteNumber":36,"velocity":100,"subtype":"noteOn"},{"deltaTime":1920,"channel":0,"type":"channel","subtype":"noteOff","noteNumber":36,"velocity":0},{"deltaTime":5760,"channel":0,"type":"channel","noteNumber":36,"velocity":100,"subtype":"noteOn"},{"deltaTime":1920,"channel":0,"type":"channel","subtype":"noteOff","noteNumber":36,"velocity":0},{"deltaTime":5760,"channel":0,"type":"channel","noteNumber":43,"velocity":100,"subtype":"noteOn"},{"deltaTime":1920,"channel":0,"type":"channel","subtype":"noteOff","noteNumber":43,"velocity":0},{"deltaTime":5760,"channel":0,"type":"channel","noteNumber":43,"velocity":100,"subtype":"noteOn"},{"deltaTime":1920,"channel":0,"type":"channel","subtype":"noteOff","noteNumber":43,"velocity":0},{"deltaTime":5760,"channel":0,"type":"channel","noteNumber":43,"velocity":100,"subtype":"noteOn"},{"deltaTime":1920,"channel":0,"type":"channel","subtype":"noteOff","noteNumber":43,"velocity":0},{"deltaTime":5760,"channel":0,"type":"channel","noteNumber":43,"velocity":100,"subtype":"noteOn"},{"deltaTime":1920,"channel":0,"type":"channel","subtype":"noteOff","noteNumber":43,"velocity":0},{"deltaTime":5760,"channel":0,"type":"channel","noteNumber":41,"velocity":100,"subtype":"noteOn"},{"deltaTime":1920,"channel":0,"type":"channel","subtype":"noteOff","noteNumber":41,"velocity":0},{"deltaTime":5760,"channel":0,"type":"channel","noteNumber":41,"velocity":100,"subtype":"noteOn"},{"deltaTime":1920,"channel":0,"type":"channel","subtype":"noteOff","noteNumber":41,"velocity":0},{"deltaTime":5760,"channel":0,"type":"channel","noteNumber":41,"velocity":100,"subtype":"noteOn"},{"deltaTime":1920,"channel":0,"type":"channel","subtype":"noteOff","noteNumber":41,"velocity":0},{"deltaTime":5760,"channel":0,"type":"channel","noteNumber":41,"velocity":100,"subtype":"noteOn"},{"deltaTime":1920,"channel":0,"type":"channel","subtype":"noteOff","noteNumber":41,"velocity":0},{"deltaTime":5760,"channel":0,"type":"channel","noteNumber":43,"velocity":100,"subtype":"noteOn"},{"deltaTime":1920,"channel":0,"type":"channel","subtype":"noteOff","noteNumber":43,"velocity":0},{"deltaTime":5760,"channel":0,"type":"channel","noteNumber":43,"velocity":100,"subtype":"noteOn"},{"deltaTime":1920,"channel":0,"type":"channel","subtype":"noteOff","noteNumber":43,"velocity":0},{"deltaTime":5760,"channel":0,"type":"channel","noteNumber":43,"velocity":100,"subtype":"noteOn"},{"deltaTime":1920,"channel":0,"type":"channel","subtype":"noteOff","noteNumber":43,"velocity":0},{"deltaTime":5760,"channel":0,"type":"channel","noteNumber":43,"velocity":100,"subtype":"noteOn"},{"deltaTime":1920,"channel":0,"type":"channel","subtype":"noteOff","noteNumber":43,"velocity":0},{"deltaTime":5760,"channel":0,"type":"channel","noteNumber":36,"velocity":100,"subtype":"noteOn"},{"deltaTime":1920,"channel":0,"type":"channel","subtype":"noteOff","noteNumber":36,"velocity":0},{"deltaTime":5760,"channel":0,"type":"channel","noteNumber":36,"velocity":100,"subtype":"noteOn"},{"deltaTime":1920,"channel":0,"type":"channel","subtype":"noteOff","noteNumber":36,"velocity":0},{"deltaTime":5760,"channel":0,"type":"channel","noteNumber":36,"velocity":100,"subtype":"noteOn"},{"deltaTime":1920,"channel":0,"type":"channel","subtype":"noteOff","noteNumber":36,"velocity":0},{"deltaTime":5760,"channel":0,"type":"channel","noteNumber":36,"velocity":100,"subtype":"noteOn"},{"deltaTime":1920,"channel":0,"type":"channel","subtype":"noteOff","noteNumber":36,"velocity":0},{"deltaTime":5760,"channel":0,"type":"channel","noteNumber":41,"velocity":100,"subtype":"noteOn"},{"deltaTime":1920,"channel":0,"type":"channel","subtype":"noteOff","noteNumber":41,"velocity":0},{"deltaTime":5760,"channel":0,"type":"channel","noteNumber":41,"velocity":100,"subtype":"noteOn"},{"deltaTime":1920,"channel":0,"type":"channel","subtype":"noteOff","noteNumber":41,"velocity":0},{"deltaTime":5760,"channel":0,"type":"channel","noteNumber":41,"velocity":100,"subtype":"noteOn"},{"deltaTime":1920,"channel":0,"type":"channel","subtype":"noteOff","noteNumber":41,"velocity":0},{"deltaTime":5760,"channel":0,"type":"channel","noteNumber":41,"velocity":100,"subtype":"noteOn"},{"deltaTime":1920,"channel":0,"type":"channel","subtype":"noteOff","noteNumber":41,"velocity":0},{"deltaTime":5760,"channel":0,"type":"channel","noteNumber":40,"velocity":100,"subtype":"noteOn"},{"deltaTime":1920,"channel":0,"type":"channel","subtype":"noteOff","noteNumber":40,"velocity":0},{"deltaTime":5760,"channel":0,"type":"channel","noteNumber":40,"velocity":100,"subtype":"noteOn"},{"deltaTime":1920,"channel":0,"type":"channel","subtype":"noteOff","noteNumber":40,"velocity":0},{"deltaTime":5760,"channel":0,"type":"channel","noteNumber":40,"velocity":100,"subtype":"noteOn"},{"deltaTime":1920,"channel":0,"type":"channel","subtype":"noteOff","noteNumber":40,"velocity":0},{"deltaTime":5760,"channel":0,"type":"channel","noteNumber":40,"velocity":100,"subtype":"noteOn"},{"deltaTime":1920,"channel":0,"type":"channel","subtype":"noteOff","noteNumber":40,"velocity":0},{"deltaTime":5760,"channel":0,"type":"channel","noteNumber":43,"velocity":100,"subtype":"noteOn"},{"deltaTime":1920,"channel":0,"type":"channel","subtype":"noteOff","noteNumber":43,"velocity":0},{"deltaTime":5760,"channel":0,"type":"channel","noteNumber":43,"velocity":100,"subtype":"noteOn"},{"deltaTime":1920,"channel":0,"type":"channel","subtype":"noteOff","noteNumber":43,"velocity":0},{"deltaTime":5760,"channel":0,"type":"channel","noteNumber":43,"velocity":100,"subtype":"noteOn"},{"deltaTime":1920,"channel":0,"type":"channel","subtype":"noteOff","noteNumber":43,"velocity":0},{"deltaTime":5760,"channel":0,"type":"channel","noteNumber":43,"velocity":100,"subtype":"noteOn"},{"deltaTime":1920,"channel":0,"type":"channel","subtype":"noteOff","noteNumber":43,"velocity":0},{"deltaTime":5760,"channel":0,"type":"channel","noteNumber":36,"velocity":100,"subtype":"noteOn"},{"deltaTime":1920,"channel":0,"type":"channel","subtype":"noteOff","noteNumber":36,"velocity":0},{"deltaTime":59520,"type":"meta","subtype":"endOfTrack"}],[{"deltaTime":0,"type":"meta","subtype":"trackName","text":"Malstrm 1"},{"deltaTime":0,"type":"meta","subtype":"instrumentName","text":"Malstrm 1"},{"deltaTime":0,"type":"meta","subtype":"unknown","data":"\t"},{"deltaTime":245760,"channel":0,"type":"channel","noteNumber":84,"velocity":95,"subtype":"noteOn"},{"deltaTime":7680,"channel":0,"type":"channel","subtype":"noteOff","noteNumber":84,"velocity":0},{"deltaTime":23040,"channel":0,"type":"channel","noteNumber":91,"velocity":91,"subtype":"noteOn"},{"deltaTime":7680,"channel":0,"type":"channel","subtype":"noteOff","noteNumber":91,"velocity":0},{"deltaTime":15360,"channel":0,"type":"channel","noteNumber":88,"velocity":89,"subtype":"noteOn"},{"deltaTime":7680,"channel":0,"type":"channel","subtype":"noteOff","noteNumber":88,"velocity":0},{"deltaTime":0,"channel":0,"type":"channel","noteNumber":93,"velocity":90,"subtype":"noteOn"},{"deltaTime":7680,"channel":0,"type":"channel","subtype":"noteOff","noteNumber":93,"velocity":0},{"deltaTime":15360,"channel":0,"type":"channel","noteNumber":88,"velocity":90,"subtype":"noteOn"},{"deltaTime":7680,"channel":0,"type":"channel","subtype":"noteOff","noteNumber":88,"velocity":0},{"deltaTime":0,"channel":0,"type":"channel","noteNumber":91,"velocity":90,"subtype":"noteOn"},{"deltaTime":7680,"channel":0,"type":"channel","subtype":"noteOff","noteNumber":91,"velocity":0},{"deltaTime":23040,"channel":0,"type":"channel","noteNumber":88,"velocity":89,"subtype":"noteOn"},{"deltaTime":7680,"channel":0,"type":"channel","subtype":"noteOff","noteNumber":88,"velocity":0},{"deltaTime":23040,"channel":0,"type":"channel","noteNumber":89,"velocity":90,"subtype":"noteOn"},{"deltaTime":7680,"channel":0,"type":"channel","subtype":"noteOff","noteNumber":89,"velocity":0},{"deltaTime":15360,"channel":0,"type":"channel","noteNumber":88,"velocity":92,"subtype":"noteOn"},{"deltaTime":7680,"channel":0,"type":"channel","subtype":"noteOff","noteNumber":88,"velocity":0},{"deltaTime":0,"channel":0,"type":"channel","noteNumber":86,"velocity":91,"subtype":"noteOn"},{"deltaTime":7680,"channel":0,"type":"channel","subtype":"noteOff","noteNumber":86,"velocity":0},{"deltaTime":15360,"channel":0,"type":"channel","noteNumber":88,"velocity":91,"subtype":"noteOn"},{"deltaTime":7680,"channel":0,"type":"channel","subtype":"noteOff","noteNumber":88,"velocity":0},{"deltaTime":0,"channel":0,"type":"channel","noteNumber":91,"velocity":92,"subtype":"noteOn"},{"deltaTime":7680,"channel":0,"type":"channel","subtype":"noteOff","noteNumber":91,"velocity":0},{"deltaTime":15360,"channel":0,"type":"channel","noteNumber":88,"velocity":90,"subtype":"noteOn"},{"deltaTime":7680,"channel":0,"type":"channel","subtype":"noteOff","noteNumber":88,"velocity":0},{"deltaTime":0,"channel":0,"type":"channel","noteNumber":84,"velocity":90,"subtype":"noteOn"},{"deltaTime":7680,"channel":0,"type":"channel","subtype":"noteOff","noteNumber":84,"velocity":0},{"deltaTime":23040,"channel":0,"type":"channel","noteNumber":91,"velocity":91,"subtype":"noteOn"},{"deltaTime":7680,"channel":0,"type":"channel","subtype":"noteOff","noteNumber":91,"velocity":0},{"deltaTime":15360,"channel":0,"type":"channel","noteNumber":88,"velocity":89,"subtype":"noteOn"},{"deltaTime":7680,"channel":0,"type":"channel","subtype":"noteOff","noteNumber":88,"velocity":0},{"deltaTime":0,"channel":0,"type":"channel","noteNumber":93,"velocity":90,"subtype":"noteOn"},{"deltaTime":7680,"channel":0,"type":"channel","subtype":"noteOff","noteNumber":93,"velocity":0},{"deltaTime":15360,"channel":0,"type":"channel","noteNumber":88,"velocity":90,"subtype":"noteOn"},{"deltaTime":7680,"channel":0,"type":"channel","subtype":"noteOff","noteNumber":88,"velocity":0},{"deltaTime":0,"channel":0,"type":"channel","noteNumber":91,"velocity":90,"subtype":"noteOn"},{"deltaTime":7680,"channel":0,"type":"channel","subtype":"noteOff","noteNumber":91,"velocity":0},{"deltaTime":23040,"channel":0,"type":"channel","noteNumber":88,"velocity":89,"subtype":"noteOn"},{"deltaTime":7680,"channel":0,"type":"channel","subtype":"noteOff","noteNumber":88,"velocity":0},{"deltaTime":23040,"channel":0,"type":"channel","noteNumber":89,"velocity":90,"subtype":"noteOn"},{"deltaTime":7680,"channel":0,"type":"channel","subtype":"noteOff","noteNumber":89,"velocity":0},{"deltaTime":15360,"channel":0,"type":"channel","noteNumber":88,"velocity":92,"subtype":"noteOn"},{"deltaTime":7680,"channel":0,"type":"channel","subtype":"noteOff","noteNumber":88,"velocity":0},{"deltaTime":0,"channel":0,"type":"channel","noteNumber":86,"velocity":91,"subtype":"noteOn"},{"deltaTime":7680,"channel":0,"type":"channel","subtype":"noteOff","noteNumber":86,"velocity":0},{"deltaTime":15360,"channel":0,"type":"channel","noteNumber":88,"velocity":91,"subtype":"noteOn"},{"deltaTime":7680,"channel":0,"type":"channel","subtype":"noteOff","noteNumber":88,"velocity":0},{"deltaTime":0,"channel":0,"type":"channel","noteNumber":91,"velocity":92,"subtype":"noteOn"},{"deltaTime":7680,"channel":0,"type":"channel","subtype":"noteOff","noteNumber":91,"velocity":0},{"deltaTime":15360,"channel":0,"type":"channel","noteNumber":88,"velocity":90,"subtype":"noteOn"},{"deltaTime":7680,"channel":0,"type":"channel","subtype":"noteOff","noteNumber":88,"velocity":0},{"deltaTime":0,"channel":0,"type":"channel","noteNumber":84,"velocity":90,"subtype":"noteOn"},{"deltaTime":7680,"channel":0,"type":"channel","subtype":"noteOff","noteNumber":84,"velocity":0},{"deltaTime":23040,"channel":0,"type":"channel","noteNumber":91,"velocity":91,"subtype":"noteOn"},{"deltaTime":7680,"channel":0,"type":"channel","subtype":"noteOff","noteNumber":91,"velocity":0},{"deltaTime":15360,"channel":0,"type":"channel","noteNumber":88,"velocity":89,"subtype":"noteOn"},{"deltaTime":7680,"channel":0,"type":"channel","subtype":"noteOff","noteNumber":88,"velocity":0},{"deltaTime":0,"channel":0,"type":"channel","noteNumber":93,"velocity":90,"subtype":"noteOn"},{"deltaTime":7680,"channel":0,"type":"channel","subtype":"noteOff","noteNumber":93,"velocity":0},{"deltaTime":15360,"channel":0,"type":"channel","noteNumber":88,"velocity":90,"subtype":"noteOn"},{"deltaTime":7680,"channel":0,"type":"channel","subtype":"noteOff","noteNumber":88,"velocity":0},{"deltaTime":0,"channel":0,"type":"channel","noteNumber":91,"velocity":90,"subtype":"noteOn"},{"deltaTime":7680,"channel":0,"type":"channel","subtype":"noteOff","noteNumber":91,"velocity":0},{"deltaTime":23040,"channel":0,"type":"channel","noteNumber":88,"velocity":89,"subtype":"noteOn"},{"deltaTime":7680,"channel":0,"type":"channel","subtype":"noteOff","noteNumber":88,"velocity":0},{"deltaTime":23040,"channel":0,"type":"channel","noteNumber":89,"velocity":90,"subtype":"noteOn"},{"deltaTime":7680,"channel":0,"type":"channel","subtype":"noteOff","noteNumber":89,"velocity":0},{"deltaTime":15360,"channel":0,"type":"channel","noteNumber":88,"velocity":92,"subtype":"noteOn"},{"deltaTime":7680,"channel":0,"type":"channel","subtype":"noteOff","noteNumber":88,"velocity":0},{"deltaTime":0,"channel":0,"type":"channel","noteNumber":86,"velocity":91,"subtype":"noteOn"},{"deltaTime":7680,"channel":0,"type":"channel","subtype":"noteOff","noteNumber":86,"velocity":0},{"deltaTime":15360,"channel":0,"type":"channel","noteNumber":88,"velocity":91,"subtype":"noteOn"},{"deltaTime":7680,"channel":0,"type":"channel","subtype":"noteOff","noteNumber":88,"velocity":0},{"deltaTime":0,"channel":0,"type":"channel","noteNumber":91,"velocity":92,"subtype":"noteOn"},{"deltaTime":7680,"channel":0,"type":"channel","subtype":"noteOff","noteNumber":91,"velocity":0},{"deltaTime":15360,"channel":0,"type":"channel","noteNumber":88,"velocity":90,"subtype":"noteOn"},{"deltaTime":7680,"channel":0,"type":"channel","subtype":"noteOff","noteNumber":88,"velocity":0},{"deltaTime":61440,"type":"meta","subtype":"endOfTrack"}]]}